/* XPM */
static char *result[] = {
/* columns rows colors chars-per-pixel */
"64 64 190 2 ",
"   c #010000",
".  c #0E0000",
"X  c #160000",
"o  c #1C0000",
"O  c #000016",
"+  c #060019",
"@  c #0D0019",
"#  c #180016",
"$  c #240000",
"%  c #2D0000",
"&  c #330000",
"*  c #3C0000",
"=  c #3B000C",
"-  c #2D1A00",
";  c #230017",
":  c #220019",
">  c #2C0018",
",  c #2C0015",
"<  c #330016",
"1  c #3C0116",
"2  c #350018",
"3  c #3A0018",
"4  c #3F1814",
"5  c #3E3902",
"6  c #333828",
"7  c #430101",
"8  c #460B01",
"9  c #440C0C",
"0  c #461400",
"q  c #481405",
"w  c #410717",
"e  c #430C16",
"r  c #420218",
"t  c #440E18",
"y  c #471616",
"u  c #471816",
"i  c #461418",
"p  c #471818",
"a  c #481919",
"s  c #481616",
"d  c #552D00",
"f  c #443F02",
"g  c #4A2716",
"h  c #5C3C17",
"j  c #563416",
"k  c #542E12",
"l  c #4B292A",
"z  c #46272A",
"x  c #533535",
"c  c #563A3A",
"v  c #5A3D37",
"b  c #483037",
"n  c #474002",
"m  c #514902",
"M  c #5C4D01",
"N  c #5E5001",
"B  c #674500",
"V  c #694900",
"C  c #67470C",
"Z  c #615101",
"A  c #685901",
"S  c #6A5402",
"D  c #7A5B00",
"F  c #735907",
"G  c #654614",
"H  c #684E16",
"J  c #6E5116",
"K  c #725C15",
"L  c #775D14",
"P  c #7E6613",
"I  c #7F6D18",
"U  c #7B640D",
"Y  c #5C433B",
"T  c #341E50",
"R  c #481F48",
"E  c #6E0055",
"W  c #402A4E",
"Q  c #4A3642",
"!  c #5C4343",
"~  c #5D454B",
"^  c #564A5B",
"/  c #4E4159",
"(  c #644E4F",
")  c #6D5B5F",
"_  c #6B575B",
"`  c #715F5F",
"'  c #4E4B69",
"]  c #504D64",
"[  c #4D556D",
"{  c #4E4C70",
"}  c #525772",
"|  c #4E5470",
" . c #6B5B61",
".. c #4B607B",
"X. c #7B6A65",
"o. c #796A6B",
"O. c #7B6F76",
"+. c #826E0D",
"@. c #89750C",
"#. c #8A760B",
"$. c #937D0E",
"%. c #937C09",
"&. c #8E7816",
"*. c #857419",
"=. c #887314",
"-. c #927C10",
";. c #917F18",
":. c #846712",
">. c #96800F",
",. c #9A8504",
"<. c #938118",
"1. c #988315",
"2. c #A2890B",
"3. c #AD950B",
"4. c #B19A0C",
"5. c #BB9C0B",
"6. c #AD9716",
"7. c #BFA408",
"8. c #BCA404",
"9. c #B3A012",
"0. c #C7AC0A",
"q. c #CCB10D",
"w. c #D4B402",
"e. c #DCBC05",
"r. c #D6BB08",
"t. c #DCC509",
"y. c #DAC302",
"u. c #E4C403",
"i. c #E3CA05",
"p. c #ECCC04",
"a. c #E7C908",
"s. c #F1CF03",
"d. c #F7D303",
"f. c #FED503",
"g. c #FFDA02",
"h. c #F7DA03",
"j. c #FFE102",
"k. c #535F8E",
"l. c #79589A",
"z. c #556687",
"x. c #556A9C",
"c. c #556392",
"v. c #59729B",
"b. c #626F8B",
"n. c #79798B",
"m. c #5C7BA7",
"M. c #5F7EB7",
"N. c #607CB7",
"B. c #607FBA",
"V. c #A4009C",
"C. c #9E249D",
"Z. c #96359C",
"A. c #E900E1",
"S. c #E01AE1",
"D. c #FF00FF",
"F. c #FC24FF",
"G. c #AF74E3",
"H. c #D25CE8",
"J. c #EA5AFF",
"K. c #6084BA",
"L. c #618ABC",
"P. c #5F93C6",
"I. c #618EC3",
"U. c #6692CA",
"Y. c #6894C8",
"T. c #659FDF",
"R. c #6A9EDD",
"E. c #6B9AD3",
"W. c #69A2DE",
"Q. c #669FE0",
"!. c #67A1E0",
"~. c #6BA2E4",
"^. c #6EA4EA",
"/. c #6DA9E9",
"(. c #6DABF9",
"). c #71AEF4",
"_. c #75ADFF",
"`. c #70A7F0",
"'. c #6BB2FF",
"]. c #76B1FF",
"[. c #78B4FF",
"{. c #979399",
"}. c #9F84E0",
"|. c #809FE4",
" X c #BF84FF",
".X c #B091FF",
"XX c #8EAAFF",
"oX c #90ADFF",
"OX c #8EB0FF",
"+X c #C185FF",
/* pixels */
"R R R R R R R R R R R R R R R R R R R R R R R R R R R R R R R R R R R R R R R R R R R R R R R R R R R R R R R R R R R R R R R R ",
"R R R R R R R R R R R R R R R R R R R R R R R R R R R R R R R R R R R R R R R R R R R R R R R R R R R R R R R R R R R R R R R R ",
"R R R R R R R R R R R R R R R R R R R R R R R R R R R R R R R R R R R R R R R R R R R R R R R R R R R R R R R R R R R R R R R R ",
"R R R R R R R R R R R R R R R R R R R R R R R R R R R R R R R R R R R R R R R R R R R R R R R R R R R R R R R R R R R R R R R R ",
"R R R R R R R R R R R R R R R R R R R R R R R R R R R R R R R R R R R R R R R R R R R R R R R R R R R R R R R R R R R R R R R R ",
"R R R R R R R R R R R R R R R R R R R R R R R R R R R R R R R R R R R R R R R R R R R R R R R R R R R R R R R R R R R R R R R R ",
"R R R R R R R R R R R R R R R R R R R R R R W R R R R R R W R R R R R R R R R R R R R x R R R R R R R R R R R R R R R R R R R R ",
"R R R R R R R R R R R R R R R R R R & 7 7 7 7 7 7 7 7 7 7 7 7 7 7 7 7 7 7 7 7 7 7 7 7 * R R R W R R R R R R R R R R R R R R R R ",
"R R R R R R R R R R R R R R R $ * 7 p y p p p p p p p p p p p p p p p p p p p p p p p p 9 * & O.R R R R R R R R R R R R R R R R ",
"R R R R R R R R R R R R R R R * y y y y p p p p p p p p p p p p p p p p p p p p p p p p p y * _ R R R R R R R R R R R R R R R R ",
"R R R R R R R R R R R R   % * p y p p y p p p p p p p p p p p p p p p p p p p p p p p p p p s 9 * o _ R R R R R R R R R R R R R ",
"R R R R R R R R R R R R 7 y y p y p y p p p p p p p p p p p p p p p p p p p p p p p p p p p y p s 9 ! R R R R R R R R R R R R R ",
"R R R R R R R R R   & * a p y y y p y s p p p p p p p p p p p p p p a p p p p p p p p p p p p p p a 9 * o ^ W R R R R R R R R R ",
"R R R R R R R R R % y y a s y a y e 1 3 r p p p p p p p p p p p i 3 3 r a p p p p p p p p p p p p p p p 9 c R R R R R R R R R R ",
"R R R R R R R R R & y a u s y p s j K K H i a p p p p p p p p p j K K H i p p p p p p p p a u p p p p y p 9 * % R R R R R R R R ",
"R R R R R R R ! x y y p y a w 2 @ >.g.g.e.: 2 3 a p p p a t 3 # U h.f.t.2 p p p a t 2 2 3 a a p p p p p p y s 7 R R R R R R R R ",
"R R R R R R % 7 9 p y y p w G >.-.7.g.f.u.$.$.:.1 p p p t G >.-.6.g.f.i.< p a a 1 G $.>.=.t p p p p p y p y p * R R R R R R R R ",
"R R R R R R & y p s y p a 2 #.j.g.f.f.f.g.g.g.r.+ > > > + I g.g.f.f.g.i.O > > , @ K g.g.i.O > 2 p p p y y y y * R R R R R R R R ",
"R R R R R R & y y p p y s 2 @.g.f.f.f.f.f.f.g.p.5.5.5.5.4.q.g.d.f.f.f.p.5.5.5.5.7.0.g.f.s.5.5.3.s p p p p p p 7 R R R R R R R R ",
"R R R R R R % y y p y y u 3 @.g.f.f.f.f.f.f.f.f.g.g.g.g.g.f.f.f.f.f.f.f.g.g.g.g.g.g.f.f.f.g.g.u.w i e < 2 2 p a 9 % o R R R R R ",
"R R R R R R 7 y y p s p u 2 @.j.f.f.f.f.f.f.f.f.f.f.f.f.f.f.f.f.f.f.f.f.d.f.f.f.f.f.f.f.f.f.g.u.1 2 P r.e.q.e i p p * R R R R R ",
"R R R . & * a y u y p y u 2 @.g.f.d.d.d.d.d.d.d.f.f.f.f.f.f.f.f.f.f.f.f.d.d.d.d.d.d.f.f.f.f.f.u.k i %.j.g.a.1 a p p * R R R R R ",
"R R R & y a y y a y a t 3 ; @.g.g.y.5 m m m n ,.g.f.f.f.f.f.f.f.f.f.f.i.n m m m f #.g.f.f.f.f.f.i.p.p.g.g.a.3 a p p * R R R R R ",
"R R R & y y y p s s t j :.P 2.g.f.y.M A A A M ,.g.f.f.f.f.f.f.f.f.f.f.i.N A A A N %.g.f.f.f.f.f.g.f.f.a.p.r.1 a p p * R R R R R ",
"R R R & y y p p y p 2 ;.j.g.f.f.f.f.d.g.f.h.f.f.f.f.f.g.g.g.g.g.g.f.f.f.d.f.d.g.f.d.f.f.f.f.f.f.g.g.i.4 g g p p p p * R R R R R ",
"R R R & p y y s p y 2 <.g.f.f.f.f.f.f.f.f.f.f.f.f.f.s.w.w.w.w.w.e.f.f.f.g.f.f.f.f.f.f.f.f.f.f.s.r.e.7.1 e i p p p p * R R R R R ",
"R R R % y p p p y y 2 <.j.g.g.f.f.f.f.f.f.f.f.f.f.g.y.          A g.f.f.f.f.f.f.f.f.g.g.g.g.g.a., > 3 p i i p p p p * R R R R R ",
"R R R & y p s u s a 1 J 3.3.0.g.f.f.f.f.f.f.f.f.f.f.p.8.8.8.8.8.q.f.f.f.f.f.f.f.g.p.3.3.3.4.4.,.s p p p p a p p p p * R R R R R ",
"R R R % y y s s u p a r 2 + +.j.g.g.g.g.f.f.f.f.f.f.f.g.g.g.g.g.g.f.f.f.f.f.f.g.g.t.@ , 2 > > 2 p p p p a p p p a a * R R R R R ",
"R R R % 7 9 s s s 7 7 9 p i h &.&.&.&.=.6.g.f.f.f.f.f.f.f.f.f.f.f.f.f.f.f.g.a.=.;.P t a p p p p p p p 7 7 9 p p p 7 & R R R R R ",
"R R R x ! x e s l ! ! c i p t 2 3 3 2 # *.g.d.d.d.d.d.d.d.d.f.f.f.f.f.f.d.f.e., 2 3 p p p p p p p s R ! ! c s s R ! c R R R R R ",
"R R R R W R $ $ O.R R R $ * * * * * * * q V B B B B V J G 1.g.d.f.f.f.i.G J C * * * * * * * * 7 p * R R R R & % R R R R R R R R ",
"R R R R R R R R R R R R R R R R R R R R R R R R R R R = > *.g.d.f.f.g.t.; 1 W R R R R R R R R R y * R R R R R R R R R R R R R R ",
"R R R R R R R R R R R R R R R R R R R R R R R R R R R & 3 *.j.g.g.g.g.i.2 *   R R R R R R R R R % o R R R R R R R R R R R R R R ",
"R R R R R R R R R R R R R R R R R R R R R R R R R R W 7 3 K q.q.q.q.q.9.3 7   R R R R R R R R R R R R R R R R R R R R R R R R R ",
"R R R R R R R R R R R R R R R R R R R R R R R R   % & a a w , ; , > > 2 p a 7 & % & & X R R R R R R R R R R R R R R R R R R R R ",
"R R R R R R R R R R R R R R R R R R R R W R R {.I.U.m.7 y y u y s s s s s 7 ^ I.Y.m.7 7 R R R W R R R R R R R R R R R R R R R R ",
"R R R R R R R R R R R R R R R   % & & & & & & | [.[.W.7 0 0 0 0 0 0 0 0 0 7 } [._.R.7 0 7 & * & % o X.W R R R R R R R R R R R R ",
"R R R R R R R R R R R R X.X.n.~.~.L.= * [ !.Q.Q.'._.).Q.Q.Q.!.T.W.W.!.!.W.!.~.'.'.(.W.~.I.7 7 ^ ~.~.Y.X.X.{.R R R R R R R R R R ",
"R R R R R R R R R R R R R W k.)._.E.E E l.OXXXXXXXXXXXXXXXOXOXOXXXXXXXXXXXXXXXXXXXXXXXOX|.7 7 ] ).).E.W T n.R R R R R R R R R R ",
"R R R R R R R R R R v b._._.Y.z 6 C.D.D.D.F.F.F.F.F.F.F.F.F.F.F.F.F.F.F.F.F.F.F.F.F.F.F.S.& 7 8 Q b } )._.~.Y c R R R R R R R R ",
"R R R R R R R R R % 7 z.].].U.7 & Z.J.J.J.J.J.J.J.J.J.J.J.J.J.J.J.J.J.J.J.J.J.J.J.J.J.J.H...z.} 8 7 [ ).].~.* & R R R R R R R R ",
"R R R R R R R R R & 7 z.[.[.Y.* 7 x.'.'.'.'.'.'.'.'.'.'.'.'.'.'.'.'.'.'.'.'.'.'.'.'.'.'.'.'.'.!.e 7 } [.]./.8 * R R R R R R R R ",
"R R R R R R R R W & 7 ] L.L.v.8 * l.+X X.X X X X X X X X X X X X X X X X X X X+X X X X X X X+XG.t 8 / K.L.m.q * R R R R R R R R ",
"R R R R R R R R R % a 7 % % * a - V.D.D.D.D.D.D.D.D.D.D.D.D.D.D.D.D.D.D.D.D.D.D.D.D.D.D.D.D.D.A.i q 7 % % & a * R R R R R R R R ",
"R R R R R R R R R % 1 P e.e.4.< * l..X.X.X.X.X.X.X.X.X.X.X.X.X.X.X.X.X.X.X.X.X.X.X.X.X.X.X.X.X}.e r P e.e.0.w * R R R R R R R R ",
"R R R R R R R R R & 2 <.j.g.r.< 7 x.].'.'.'.'.(.'.'._.'.'.'.'.'.'.'.'.'.'.'.'.'.'.'.'.'.'.'.'.Q.9 < @.j.g.a.r * R R R R R R R R ",
"R R R R R R R R W $ * d D D S i 7 x._._._._._._._._._._._._._._.'._._._._._._._.]._._._._._._.R.y y k D D S 7 * R R R R R R R R ",
"R R R R R R R R R ( ` ) _ ) ( 9 7 x._._._._._._._._._.^.^.^.^.^.^.^.^.`._._._._._._._._._._._.R.9 q R R R R R R R R R R R R R R ",
"R R R R R R R R R R R R W R R & 7 x.]._._._._._._._.R.8 R R & * = l 0 c._._._._._._._._._._._.Q.e * R R R R R R R R R R R R R R ",
"R R R R R R R R R R R R R R R & 7 x._._._._._._._._.E.7 7 R R R W 7 7 k._._._._._._._._._._._.R.y & R R R R R R R R R R R R R R ",
"R R R R R R R R R R R R R R R & 7 x.[.]._.[._.[.].[.W.7 & R R R R * 7 c.].].]._._._.[._.[._.].Q.e * R R R R R R R R R R R R R R ",
"R R R R R R R R R R R R R R R % 7 { K.M.N.N.N.N.N.K.m.7 * R R R R & 7 ' K.N.N.N.N.N.N.N.N.N.B.m.9 * R R R R R R R R R R R R R R ",
"R R R R R R R R R R R R R R R X * & & * * 7 7 7 7 7 7 a * R R R R * s 8 7 7 7 7 7 7 7 7 * & & * * % R R R R R R R R R R R R R R ",
"R R R R R R R R R R R R R R R R R R R R R * y y s s p s & R R R R & s s s p s p s a s 7 o.R R R W R R R R R R R R R R R R R R R ",
"R R R R R R R R R R R R R R R R R R R R R * y y s p s p * R R R R & s s p s p s p s s * o.R R R R R R R R R R R R R R R R R R R ",
"R R R R R R R R R R R R R R R R R R R R R * * * 7 * * * % R R R R % * * * * * * * * 7 * R R R R R R R R R R R R R R R R R R R R ",
"R R R R R R R R R R R R R R R R R R R R R R R R R R R R R R R R R R R R R R R R R R R R R R R R R R R R R R R R R R R R R R R R ",
"R R R R R R R R R R R R R R R R R R R R R R R R R R R R R R R R R R R R R R R R R R R R R R R R R R R R R R R R R R R R R R R R ",
"R R R R R R R R R R R R R R R R R R R R R R R R R R R R R R R R R R R R R R R R R R R R R R R R R R R R R R R R R R R R R R R R ",
"R R R R R R R R R R R R R R R R R R R R R R R R R R R R R R R R R R R R R R R R R R R R R R R R R R R R R R R R R R R R R R R R ",
"R R R R R R R R R R R R R R R R R R R R R R R R R R R R R R R R R R R R R R R R R R R R R R R R R R R R R R R R R R R R R R R R ",
"R R R R R R R R R R R R R R R R R R R R R R R R R R R R R R R R R R R R R R R R R R R R R R R R R R R R R R R R R R R R R R R R ",
"R R R R R R R R R R R R R R R R R R R R R R R R R R R R R R R R R R R R R R R R R R R R R R R R R R R R R R R R R R R R R R R R "
};
