/* XPM */
static char *result[] = {
/* columns rows colors chars-per-pixel */
"64 64 159 2 ",
"   c black",
".  c #010000",
"X  c #020102",
"o  c #040104",
"O  c #050204",
"+  c #040103",
"@  c #020001",
"#  c #080307",
"$  c #0D050C",
"%  c #0F060E",
"&  c #0D050D",
"*  c #090309",
"=  c #060205",
"-  c #010001",
";  c #0F050E",
":  c #5D2559",
">  c #63285E",
",  c #64285F",
"<  c #60265B",
"1  c #5A2455",
"2  c #542250",
"3  c #53214E",
"4  c #4C1E48",
"5  c #4A1D46",
"6  c #63275E",
"7  c #672961",
"8  c #682962",
"9  c #6B2B65",
"0  c #762F6F",
"q  c #783071",
"w  c #762F70",
"e  c #6D2C67",
"r  c #5C2457",
"t  c #3D183A",
"y  c #240E22",
"u  c #150814",
"i  c #0C040B",
"p  c #110710",
"a  c #1E0C1C",
"s  c #2F132D",
"d  c #4F204B",
"f  c #652860",
"g  c #6C2B66",
"h  c #6F2C69",
"j  c #722E6C",
"k  c #722D6C",
"l  c #5F265B",
"z  c #020002",
"x  c #110610",
"c  c #7B3175",
"v  c #84357D",
"b  c #82347C",
"n  c #773071",
"m  c #7C3175",
"M  c #803379",
"N  c #7D3276",
"B  c #090308",
"V  c #271025",
"C  c #050205",
"Z  c #50204C",
"A  c #682963",
"S  c #6D2B67",
"D  c #381635",
"F  c #783072",
"G  c #6A2A64",
"H  c #100610",
"J  c #7C3276",
"K  c #7F3378",
"L  c #180917",
"P  c #030102",
"I  c #170915",
"U  c #80337A",
"Y  c #4D1F49",
"T  c #0A0409",
"R  c #210D1F",
"E  c #883780",
"W  c #31132E",
"Q  c #391737",
"!  c #83347C",
"~  c #592254",
"^  c #582253",
"/  c #351532",
"(  c #542150",
")  c #86367F",
"_  c #471C44",
"`  c #873680",
"'  c #501E4B",
"]  c #2F102C",
"[  c #050405",
"{  c #040404",
"}  c #5B2456",
"|  c #7A3174",
" . c #82347B",
".. c #3C1538",
"X. c #692A63",
"o. c #7F3379",
"O. c #62265C",
"+. c #020402",
"@. c #070206",
"#. c #62265D",
"$. c #772F70",
"%. c #0B040B",
"&. c #331431",
"*. c #7B3174",
"=. c #10060F",
"-. c #391736",
";. c #7E3278",
":. c #160915",
">. c #3B1737",
",. c #1C0B1B",
"<. c #200D1E",
"1. c #080308",
"2. c #080208",
"3. c #060206",
"4. c #120711",
"5. c #030103",
"6. c #3A1636",
"7. c #1F0C1D",
"8. c #070307",
"9. c #381534",
"0. c #130712",
"q. c #371533",
"w. c #140813",
"e. c #170916",
"r. c #371534",
"t. c #050105",
"y. c #080207",
"u. c #3B1738",
"i. c #30132D",
"p. c #60255B",
"a. c #000300",
"s. c #200C1E",
"d. c #85357E",
"f. c #381435",
"g. c #000100",
"h. c #7E3277",
"j. c #893782",
"k. c #431940",
"l. c #000200",
"z. c #0A040A",
"x. c #742E6E",
"c. c #41183E",
"v. c #40173D",
"b. c #5F265A",
"n. c #732E6D",
"m. c #5D2558",
"M. c #6E2C68",
"N. c #030003",
"B. c #732D6D",
"V. c #5E2659",
"C. c #562251",
"Z. c #552251",
"A. c #582353",
"S. c #592354",
"D. c #702D6A",
"F. c #752F6F",
"G. c #672962",
"H. c #712D6B",
"J. c #281026",
/* pixels */
"                                                                                                                                ",
"                                                    . X o O O + @ . @ + # $ % % % % % & * = + @ .   - @ .   . . .               ",
"      @ ; : > , > , > , > , > < 1 2 3 4 5 6 > 7 8 9 0 q q q q w e r t y u $ i $ $ $ $ $ $ p a s d f g h j 0 0 0 k l o   z -     ",
"        x c v v v v v v v v v v v v v v v v v v v v v v v v v v v v v b c q n n n n n n q m M v v v v v v v v v v N %   .     . ",
"        B c v v v v v v v v v v v v v v v v v v v v v v v v v v v v v v v v v v v v v v v v v v v v v v v v v v v v V         - ",
"        C c v v v v v v v v v v v v v v v v v v v v v v v v v v v v v v v v v v v v v v v v v v v v v v v v v v v v Z         - ",
"          A v v v v v v v v v v v v v v v v v v v v v v v v v v v v v v v v v v v v v v v v v v v v v v v v v v v v c #       - ",
"          S v v v v v v v v v v v v v v v v v v v v v v v v v v v v v v v v v v v v v v v v v v v v v v v v v v v v v D       - ",
"          F v v v v v v v v v v v v v v v v v v v v v v v v v v v v v v v v v v v v v v v v v v v v v v v v v v v v v G     X - ",
"        C c v v v v v v v v v v v v v v v v v v v v v v v v v v v v v v v v v v v v v v v v v v v v v v v v v v v v v F # @ + - ",
"        H J v v v v v v v v v v v v v v v v v v v v v v v v v v v v v v v v v v v v v v v v v v v v v v v v v v v v v K L . P - ",
"        I U v v v v v v v v v v v v v v v v v v v v v v v v v v v v v v v v v v v v v v v v v v v v v v v v v v v v v Y T . @ - ",
"        R v v v v v v v v v v v E E E E E E E E E E E E E E E E E E E E E E E E E E E E E E E v v v v v v v v v v v v W .   . - ",
"        Q v v v v v v v v v v ! ~ ^ ^ ^ ^ ^ ^ ^ ^ ^ ^ ^ ^ ^ ^ ^ ^ ^ ^ ^ ^ ^ ^ ^ ^ ^ ^ ^ ^ ^ ~ ! v v v v v v v v v v v / .     - ",
"        ( v v v v v v v v v ) v                                                               v ) v v v v v v v v v v _ - .   - ",
"        e v v v v v v v v ` ' ] [ { { { { { { { { { { { { { { { { { { { { { { { { { { { { { [ ] ' ` v v v v v v v v v } X -   - ",
"      z | v v v v v v v  . ...  { { { { { { { { { { { { { { { { { { { { { { { { { { { { { { {   .. . .v v v v v v v v X.+ -     ",
"      & o.v v v v v v ` O.  +.{ { { { { { { { { { { { { { { { { { { { { { { { { { { { { { { { { +.  O.` v v v v v v v k @.@     ",
"      a U v v v v v v ` #.  { { { { { { { { { { { { { { { { { { { { { { { { { { { { { { { { { { {   #.` v v v v v v v $.%.-     ",
"      &.v v v v v v v ` #.  { { { { { { { { { { { { { { { { { { { { { { { { { { { { { { { { { { {   #.` v v v v v v v *.=.X     ",
"    - -.v v v v v v v ` #.  { { { { { { { { { { { { { { { { { { { { { { { { { { { { { { { { { { {   #.` v v v v v v v ;.:.+     ",
"    X >.v v v v v v v ` #.  { { { { { { { { { { { { { { { { { { { { { { { { { { { { { { { { { { {   #.` v v v v v v v o.,.C     ",
"    o >.v v v v v v v ` #.  { { { { { { { { { { { { { { { { { { { { { { { { { { { { { { { { { { {   #.` v v v v v v v o.<.#     ",
"    @.>.v v v v v v v ` #.  { { { { { { { { { { { { { { { { { { { { { { { { { { { { { { { { { { {   #.` v v v v v v v o.R T     ",
"    # >.v v v v v v v ` #.  { { { { { { { { { { { { { { { { { { { { { { { { { { { { { { { { { { {   #.` v v v v v v v o.R i     ",
"    1.>.v v v v v v v ` #.  { { { { { { { { { { { { { { { { { { { { { { { { { { { { { { { { { { {   #.` v v v v v v v o.R &     ",
"    2.>.v v v v v v v ` #.  { { { { { { { { { { { { { { { { { { { { { { { { { { { { { { { { { { {   #.` v v v v v v v o.<.=.    ",
"    B >.v v v v v v v ` #.  { { { { { { { { { { { { { { { { { { { { { { { { { { { { { { { { { { {   #.` v v v v v v v o.<.p   - ",
"    # >.v v v v v v v ` #.  { { { { { { { { { { { { { { { { { { { { { { { { { { { { { { { { { { {   #.` v v v v v v v o.<.p   - ",
"    3.>.v v v v v v v ` #.  { { { { { { { { { { { { { { { { { { { { { { { { { { { { { { { { { { {   #.` v v v v v v v o.<.p   - ",
"    O >.v v v v v v v ` #.  { { { { { { { { { { { { { { { { { { { { { { { { { { { { { { { { { { {   #.` v v v v v v v o.<.4.  - ",
"    5.6.v v v v v v v ` #.  { { { { { { { { { { { { { { { { { { { { { { { { { { { { { { { { { { {   #.` v v v v v v v o.7.8.  - ",
"    @ 9.v v v v v v v ` #.  { { { { { { { { { { { { { { { { { { { { { { { { { { { { { { { { { { {   #.` v v v v v v v o.0.    - ",
"    - q.v v v v v v v ` #.  { { { { { { { { { { { { { { { { { { { { { { { { { { { { { { { { { { {   #.` v v v v v v v o.4.      ",
"    - q.v v v v v v v ` #.  { { { { { { { { { { { { { { { { { { { { { { { { { { { { { { { { { { {   #.` v v v v v v v o.w.      ",
"    - q.v v v v v v v ` #.  { { { { { { { { { { { { { { { { { { { { { { { { { { { { { { { { { { {   #.` v v v v v v v o.:.      ",
"    - q.v v v v v v v ` #.  { { { { { { { { { { { { { { { { { { { { { { { { { { { { { { { { { { {   #.` v v v v v v v o.e.      ",
"    - r.v v v v v v v ` #.  { { { { { { { { { { { { { { { { { { { { { { { { { { { { { { { { { { {   #.` v v v v v v v o.L       ",
"    z 6.v v v v v v v ` #.  { { { { { { { { { { { { { { { { { { { { { { { { { { { { { { { { { { {   #.` v v v v v v v o.L       ",
"    t.>.v v v v v v v ` #.  { { { { { { { { { { { { { { { { { { { { { { { { { { { { { { { { { { {   #.` v v v v v v v o.L       ",
"    y.>.v v v v v v v ` #.  { { { { { { { { { { { { { { { { { { { { { { { { { { { { { { { { { { {   #.` v v v v v v v o.L       ",
"    B >.v v v v v v v ` #.  { { { { { { { { { { { { { { { { { { { { { { { { { { { { { { { { { { {   #.` v v v v v v v o.L       ",
"    3.>.v v v v v v v ` #.  { { { { { { { { { { { { { { { { { { { { { { { { { { { { { { { { { { {   #.` v v v v v v v o.L       ",
"    o >.v v v v v v v ` #.  { { { { { { { { { { { { { { { { { { { { { { { { { { { { { { { { { { {   #.` v v v v v v v o.L       ",
"    o >.v v v v v v v ` #.  { { { { { { { { { { { { { { { { { { { { { { { { { { { { { { { { { { {   #.` v v v v v v v o.L       ",
"    5.u.v v v v v v v ` #.  { { { { { { { { { { { { { { { { { { { { { { { { { { { { { { { { { { {   #.` v v v v v v v o.L       ",
"    P -.v v v v v v v ` #.  { { { { { { { { { { { { { { { { { { { { { { { { { { { { { { { { { { {   #.` v v v v v v v o.L       ",
"    X i.v v v v v v v E p.  a.[ { { { { { { { { { { { { { { { { { { { { { { { { { { { { { { { [ a.  p.E v v v v v v v o.e.      ",
"    @ s. .v v v v v v d.N w f.g.{ { { { { { { { { { { { { { { { { { { { { { { { { { { { { { { g.f.w N d.v v v v v v v o.4.      ",
"    - w.h.v v v v v v v d.j.k.l.{ { { { { { { { { { { { { { { { { { { { { { { { { { { { { { { l.k.j.d.v v v v v v v v o.z.    - ",
"    - i x.v v v v v v v v v ! M l.  g.g.g.g.g.g.g.g.g.g.g.g.g.g.g.g.g.g.g.g.g.g.g.g.g.g.g.  l.M ! v v v v v v v v v v ;.C     - ",
"    - 1.7 v v v v v v v v v v  .c.v.v.v.v.v.v.v.v.v.v.v.v.v.v.v.v.v.v.v.v.v.v.v.v.v.v.v.v.v.c. .v v v v v v v v v v v n 5.    z ",
"    . 8.b.v v v v v v v v v v v ` ` ` ` ` ` ` ` ` ` ` ` ` ` ` ` ` ` ` ` ` ` ` ` ` ` ` ` ` ` ` v v v v v v v v v v v v n.-     X ",
"      @.m.v v v v v v v v v v v v v v v v v v v v v v v v v v v v v v v v v v v v v v v v v v v v v v v v v v v v v v h @     5.",
"      @.m.v v v v v v v v v v v v v v v v v v v v v v v v v v v v v v v v v v v v v v v v v v v v v v v v v v v v v v h o @   o ",
"      @.m.v v v v v v v v v v v v v v v v v v v v v v v v v v v v v v v v v v v v v v v v v v v v v v v v v v v v v v h O 5.  5.",
"      = m.v v v v v v v v v v v v v v v v v v v v v v v v v v v v v v v v v v v v v v v v v v v v v v v v v v v v v v M.+ O   X ",
".     o b.v v v v v v v v v v v v v v v v v v v v v v v v v v v v v v v v v v v v v v v v v v v v v v v v v v v v v v M.o O   z ",
"N.    + G v v v v v v v v v v v v v v v v v v v v v v v v v v v v v v v v v v v v v v v v v v v v v v v v v v v v v v M.o C   - ",
"N.    C B.m | n.M.8 f V.1 C.3 Z.A.A.A.A.S.A.A.A.A.A.A.r f D.F.q $.n.h 9 G G.G G G G 9 9 M.H.F.F.F.F.n.D.n.h.v v v v v M.o 8.  - ",
"      5.4.i 3.P - .                                       . X 5.5.@ - . . . . . . . . . - P 5.O O O C O O z.w.a J.&.D >.P *     ",
"          . . .       @ X O = O X @ @ @ @ @ @ @ X O B %.z.= 5.X P + # T T * * 8.= 5.X @ @ .                                     ",
"                                                                                                                                ",
"                                                                                                                                "
};
