/* XPM */
static char *result[] = {
/* columns rows colors chars-per-pixel */
"64 64 187 2 ",
"   c #010001",
".  c #0E0000",
"X  c #1A0005",
"o  c #000016",
"O  c #000018",
"+  c #0F0017",
"@  c #1A0019",
"#  c #151402",
"$  c #240000",
"%  c #2B0000",
"&  c #23000A",
"*  c #330000",
"=  c #3B0000",
"-  c #3A000D",
";  c #341200",
":  c #3E1500",
">  c #3B1900",
",  c #2C0017",
"<  c #2D0018",
"1  c #240018",
"2  c #340015",
"3  c #3B0116",
"4  c #3D0D17",
"5  c #34001A",
"6  c #3B0018",
"7  c #352B01",
"8  c #343001",
"9  c #3E1B2C",
"0  c #370032",
"q  c #381838",
"w  c #3F1F35",
"e  c #430000",
"r  c #460C00",
"t  c #440B0B",
"y  c #451202",
"u  c #411900",
"i  c #481909",
"p  c #440E17",
"a  c #400118",
"s  c #440C18",
"d  c #471717",
"f  c #461916",
"g  c #491B17",
"h  c #461418",
"j  c #471818",
"k  c #481919",
"l  c #472417",
"z  c #4A2318",
"x  c #4B2515",
"c  c #512B16",
"v  c #553614",
"b  c #461D2E",
"n  c #4A2527",
"m  c #47212B",
"M  c #4F2C2B",
"N  c #442637",
"B  c #49303B",
"V  c #543428",
"C  c #5D4012",
"Z  c #7E5E00",
"A  c #735A12",
"S  c #6C5015",
"D  c #7E6400",
"F  c #7E6C13",
"G  c #776010",
"H  c #79673D",
"J  c #363A5E",
"K  c #3D3D61",
"L  c #481F48",
"P  c #650F53",
"I  c #513848",
"U  c #493B56",
"Y  c #433C5A",
"T  c #4A3C5A",
"R  c #563057",
"E  c #602053",
"W  c #453D67",
"Q  c #5B3F74",
"!  c #5A4349",
"~  c #4D485B",
"^  c #69504B",
"/  c #625050",
"(  c #4F586F",
")  c #494472",
"_  c #474B7D",
"`  c #444373",
"'  c #4F5774",
"]  c #505974",
"[  c #7A6A65",
"{  c #81630F",
"}  c #846800",
"|  c #897605",
" . c #917302",
".. c #947B03",
"X. c #987C02",
"o. c #977A0C",
"O. c #846C13",
"+. c #837313",
"@. c #967A11",
"#. c #837675",
"$. c #9F8505",
"%. c #9A8918",
"&. c #A18300",
"*. c #A78E06",
"=. c #AA9202",
"-. c #B6970B",
";. c #B69C0B",
":. c #A28410",
">. c #A79514",
",. c #AFA201",
"<. c #B9A60D",
"1. c #C3A406",
"2. c #C4AE0E",
"3. c #CDB605",
"4. c #D6BA0C",
"5. c #D8BB07",
"6. c #C6AC11",
"7. c #C2B014",
"8. c #D3BE13",
"9. c #DDC30A",
"0. c #D8C004",
"q. c #EAC603",
"w. c #E5CD02",
"e. c #ECCB04",
"r. c #E3C408",
"t. c #E1C908",
"y. c #F3CF03",
"u. c #EED003",
"i. c #F7D204",
"p. c #FFD503",
"a. c #FFDA02",
"s. c #F4D40A",
"d. c #FFE103",
"f. c #4D5D8C",
"g. c #516381",
"h. c #587297",
"j. c #7F72B3",
"k. c #BB00AE",
"l. c #C942B7",
"z. c #D800CE",
"x. c #C532CE",
"c. c #E500E2",
"v. c #FF00FF",
"b. c #F900F1",
"n. c #EB39F8",
"m. c #F13CFF",
"M. c #BA43C4",
"N. c #A477D0",
"B. c #DE56F2",
"V. c #F345FF",
"C. c #E857FF",
"Z. c #EA5AFF",
"A. c #E658FD",
"S. c #E643F1",
"D. c #5E87B8",
"F. c #678BAF",
"G. c #6183BE",
"H. c #6189BA",
"J. c #7591B4",
"K. c #5D8BC1",
"L. c #6384C4",
"P. c #6793CB",
"I. c #6A9DDB",
"U. c #669BD6",
"Y. c #6CA3DF",
"T. c #6C9EE3",
"R. c #6DA4E5",
"E. c #66A9EE",
"W. c #6CA9EC",
"Q. c #68A4E9",
"!. c #6FA9F6",
"~. c #66ADF2",
"^. c #71A6F3",
"/. c #71A9F3",
"(. c #74AEFF",
"). c #7DAFFF",
"_. c #72B0F6",
"`. c #74B1FF",
"'. c #7EB2FF",
"]. c #94919B",
"[. c #8290B1",
"{. c #9894EA",
"}. c #AE9BFF",
"|. c #A694F6",
" X c #B09FFF",
".X c #BC83F3",
"XX c #C48AFF",
/* pixels */
"L L L L L L L L L L L L L L L L L L L L L L L L L L L L L L L L L L L L L L L L L L L L L L L L L L L L L L L L L L L L L L L L ",
"L L L L L L L L L L L L L L L L L L L L L L L L L L L L L L L L L L L L L L L L L L L L L L L L L L L L L L L L L L L L L L L L ",
"L L L L L L L L L L L L L L L L L L L L L L L L L L L L L L L L L L L L L L L L L L L L L L L L L L L L L L L L L L L L L L L L ",
"L L L L L L L L L L L L L L L L L L L L L L L L L L L L L L L L L L L L L L L L L L L L L L L L L L L L L L L L L L L L L L L L ",
"L L L L L L L L L L L L L L L L L L L L L L L L L L L L L L L L L L L L L L L L L L L L L L L L L L L L L L L L L L L L L L L L ",
"L L L L L L L L L L L L L L L L L L L L L L L L L L L L L L L L L L L L L L L L L L L L L L L L L L L L L L L L L L L L L L L L ",
"L L L L L L L L L L L L L L L L L L L L L L L L L L L L L L L L L L L L L L L L L L L L L L L L L L L L L L L L L L L L L L L L ",
"L L L L L L L L L L L L L L L L L L L $ = = = = = = = = = = = = = = = = = = = = = = = = = % L L L L L L L L L L L L L L L L L L ",
"L L L L L L L L L L L L L L L L L L q e d d d d d d d d d d j j d d d d d d d d d d d d d t q L L L L L L L L L L L L L L L L L ",
"L L L L L L L L L L L L q X * * * * = k d d j j j j d j j j j j k d k d j j j j d f d d j j = *   L L L L L L L L L L L L L L L ",
"L L L L L L L L L q q q q h d d d j d j d j j j j j j j j j j j k h d k j j j j j j k d j d d j t q q q L L L L L L L L L L L L ",
"L L L L L L L L L q = = t j j d d j d d d j j j j j j j j j j j j k k d j j j j j k h k k d j j j e e % q L L L L L L L L L L L ",
"L L L L L L q = e d f d d d d d d h d j h h j j j d j j j j j j j j j j j j j j j j j j j j d j j j j j e = % L L L L L L L L L ",
"L L L L L L q e h d d d d d d h h p d h j h h h d d j j j j j j j j j j j j j j j j j j j d j j j j j d h h % L L L L L L L L L ",
"L L L L L L q e d d d d d f d j l l j j j j l l z j j j j j j j j j j j j j j j j j j j j j d j j j j d d d * L L L L L L L L L ",
"L L L L L L q * = h d f d f 3 <.w.e.%.6 6 >.e.e.;., 6 6 j j j j j j j j j j j j j j j j j d d j j j j d d d t q q q L L L L L L ",
"L L L L L L q q q M f d d k 2 3.a.d.>.2 5 <.a.a.3.G F S p j j j j j j j j j j j j j j j k d d j j j j j d d k e = $ q L L L L L ",
"L L L L L L L L L q t f 2 < o 3.a.d.%.o O <.d.p.p.p.a.4.< j j j j j j j j j j d j j j j h f d j j j j d d f h k d * q L L L L L ",
"L L L L L L L L L q h 4 >.;.-.q.p.a.4.-.-.5.a.p.p.p.a.8.< j j j j j h h d h h h h k j j k j j j j j j d d d j d d = q L L L L L ",
"L L L L L L L L L q h 3 t.a.a.p.p.p.p.a.a.p.p.p.p.p.p.8., j j j j h 3 4 4 4 4 4 d k j j j j d j j j j j j d d d d * q L L L L L ",
"L L L L L L L L L q j 3 9.p.p.p.a.a.p.a.p.p.p.p.p.p.p.8.< k d 6 6 C 9.r.r.r.r.r.A 6 k d j j j j j j j d d d j d k * q L L L L L ",
"L L L L L L L L L q f 3 t.p.p.e.t.q.q.q.e.y.p.p.p.p.a.8.< d c A A | a.p.a.p.p.a.{ 6 d k j j d j j j j j d j d d d * q L L L L L ",
"L L L L L L L L L q , + 9.a.d.|           ,.a.p.p.p.a.8.< 6 +.s.a.i.p.p.p.a.a.a.{ 6 k j j j d j j j j d d d j j d * q L L L L L ",
"L L L L L L L L L q q q u.a.a.1.=.=.=.=.=.5.p.p.p.p.a.8., 6 +.d.p.p.p.p.i.6.6.6.S a j j j j d j j j j d j d d d d = q L L L L L ",
"L L L L L L q % e e.a.a.p.p.p.p.a.a.a.p.p.p.p.p.p.p.p.8.O 1 F a.p.p.p.a.s.l 1 < p k j j j j j j j j k d d d d f h * q L L L L L ",
"L L L L L L q e c e.a.p.p.p.p.p.p.p.p.p.p.p.p.p.p.p.p.s.5.5.t.p.p.e.o.%.@.c j j j j j j j j d j j j j d d d d t e % q L L L L L ",
"L L L L L L q e c 5.e.e.e.e.e.i.p.p.p.p.p.p.p.p.p.p.p.p.a.p.a.e.u.0.6 5 5 h j j j j k k j j d j j j k d d d h q q q L L L L L L ",
"L L L L L L q % = 7 8 8 #     7.a.p.p.p.p.p.p.p.p.p.p.p.p.p.e.v v v g j j j j j j j j k j j d j k = * * = k * L L L L L L L L L ",
"L L L L L L L q L q & X ..*.$.9.a.p.p.p.p.p.p.p.p.p.p.p.p.p.q.j s p d j j j j j k h j k j j d j e q L L   = * L L L L L L L L L ",
"L L L L L L L L L q = $ w.d.a.a.p.a.a.a.a.p.a.a.p.p.a.p.p.p.q.2 2 5 k d j j j j * = * t j k = *   L L L L . . L L L L L L L L L ",
"L L L L L L L L L L L L q V &.$.&.&.&.&.&.&.&.&.&.:.$.;.a.p.i.4.4.2.x d f t e k L L L q = = L L L L L L L L L L L L L L L L L L ",
"L L L L L L L L L L L L q N I I I I I I I I I I N 2 @ @.a.p.p.a.a.w.f d j q q q L L L q q q L L L L L L L L L L L L L L L L L L ",
"L L L L L L L L L L L L L L L L L L L L L L L L L = a o.d.p.a.p.a.w.f e I L L L L L L L L L L L L L L L L L L L L L L L L L L L ",
"L L L L L L L L L L L L L L L L L L L L L L L L L = a O.4.4.4.4.5.2.x e / L L L L L L L L L L L L L L L L L L L L L L L L L L L ",
"L L L L L L L L L L L L L L L L L L L L L L L L L * g p 5 < % % % * d e ! L L L L L L L L L L L L L L L L L L L L L L L L L L L ",
"L L L L L L L L L L L L L L L L L L L L L L q L #.= t y y e ~ P.P.H.m t w q q L L L L L L L L L L L L L L L L L L L L L L L L L ",
"L L L L L L L L L L L L L L L L L L L L L L   5 9 B B B B n ] `.`.W.m j h 5 5 N L L L L L L L L L L L L L L L L L L L L L L L L ",
"L L L L L L L L L L L L L L L L L L L ^ ^ F.~.E.E.E.E.!.!.!._.(.`.R.m r U Q.E.W q q q L L L L L L L L L L L L L L L L L L L L L ",
"L L L L L L L L L L L L L L L L L L L $ = j. X}.}.}.}.{.I.I.T.(.(.R.m r R |.}.Q q = * L L L L L L L L L L L L L L L L L L L L L ",
"L L L L L L L L L L L L L L L L L L L % % k.v.v.v.v.v.z.$ e ( `.`.R.m : P b.v.v.q > = L L L L L L L L L L L L L L L L L L L L L ",
"L L L L L L L L L L L L L L L L L L J.K.K.{.XXXX.X.XXXN.* e ] `.).R.m y R .XXX.Xq r = L L L L L L L L L L L L L L L L L L L L L ",
"L L L L L L L L L L L L L L L q % % P.{.`.`.`.(.`.(.`.Y.e e ] _./.R.m r T !.(.` q e = L L L L L L L L L L L L L L L L L L L L L ",
"L L L L L L L L L L L L L L L q = ; x.m.m.m.m.m.V.V.V.x.. 2 0 K K Y j u P n.m.m.q > = L L L L L L L L L L L L L L L L L L L L L ",
"L L L L L L L L L L L L L L L q e ; M.C.A.A.A.A.S.c.c.l.| @. . . .} d u E B.C.A.q > = L L L L L L L L L L L L L L L L L L L L L ",
"L L L L L L L L L L L L L L L q = e K.(.(.(.(.`.D.= % $.a.p.a.a.a.q.h r T ^.(.) q e = L L L L L L L L L L L L L L L L L L L L L ",
"L L L L L L L L L L L L L L L q = e K.(.(.(.(.`.H.e 3 X.a.p.p.p.a.w.i r T ^.(.) q e = L L L L L L L L L L L L L L L L L L L L L ",
"L L L L L L L L L L L L L L L q h e D.(.(.(.(.`.H.e - ..a.a.p.p.a.t.i r U ^.(.) q e = L L L L L L L L L L L L L L L L L L L L L ",
"L L L L L L L L L L L L L L L L L L ].J ~ K.`.(.^.T.Q.J.Z D D D D H Y.I.T.(.(.(.q = % L L L L L L L L L L L L L L L L L L L L L ",
"L L L L L L L L L L L L L L L L L L L [ [ J.W.R.^.`.`.I.` _ _ _ _ f./.).(.W q q q q q L L L L L L L L L L L L L L L L L L L L L ",
"L L L L L L L L L L L L L L L L L L L L L L % e h.`.).`.`.`.`.).`.`.`.`._.B l q L L L L L L L L L L L L L L L L L L L L L L L L ",
"L L L L L L L L L L L L L L L L L L L L L L % e ' G.G.G.G.G.L.D.G.G.G.G.H.n t M L L L L L L L L L L L L L L L L L L L L L L L L ",
"L L L L L L L L L L L L L L L L L L L L L L $ = e e e e e e e e e e e e e = e m L L L L L L L L L L L L L L L L L L L L L L L L ",
"L L L L L L L L L L L L L L L L L L L L L L L L L = d j d d d d d d k e q L L L L L L L L L L L L L L L L L L L L L L L L L L L ",
"L L L L L L L L L L L L L L L L L L L L L L L L L = d d d j j d d d d e q L L L L L L L L L L L L L L L L L L L L L L L L L L L ",
"L L L L L L L L L L L L L L L L L L L L L L $ t = % * * * * * * * * * % q L L L L L L L L L L L L L L L L L L L L L L L L L L L ",
"L L L L L L L L L L L L L L L L L L L L L L L L L L L L L L L L L L L L L L L L L L L L L L L L L L L L L L L L L L L L L L L L ",
"L L L L L L L L L L L L L L L L L L L L L L L L L L L L L L L L L L L L L L L L L L L L L L L L L L L L L L L L L L L L L L L L ",
"L L L L L L L L L L L L L L L L L L L L L L L L L L L L L L L L L L L L L L L L L L L L L L L L L L L L L L L L L L L L L L L L ",
"L L L L L L L L L L L L L L L L L L L L L L L L L L L L L L L L L L L L L L L L L L L L L L L L L L L L L L L L L L L L L L L L ",
"L L L L L L L L L L L L L L L L L L L L L L L L L L L L L L L L L L L L L L L L L L L L L L L L L L L L L L L L L L L L L L L L ",
"L L L L L L L L L L L L L L L L L L L L L L L L L L L L L L L L L L L L L L L L L L L L L L L L L L L L L L L L L L L L L L L L ",
"L L L L L L L L L L L L L L L L L L L L L L L L L L L L L L L L L L L L L L L L L L L L L L L L L L L L L L L L L L L L L L L L ",
"L L L L L L L L L L L L L L L L L L L L L L L L L L L L L L L L L L L L L L L L L L L L L L L L L L L L L L L L L L L L L L L L ",
"L L L L L L L L L L L L L L L L L L L L L L L L L L L L L L L L L L L L L L L L L L L L L L L L L L L L L L L L L L L L L L L L "
};
