/* XPM */
static char *result[] = {
/* columns rows colors chars-per-pixel */
"64 64 7 1 ",
"  c #6E316D",
". c black",
"X c #350033",
"o c #C276C2",
"O c #DF970C",
"+ c #EAC2EA",
"@ c #612C61",
/* pixels */
" ..XXXXXX    ..ooOOooXXXX..XXoo++++XX    XXooooXX@@..@@....oo+++",
" ..XXXXXX    ..ooOOooXXXX..XXoo++++XX    XXooooXX@@..@@....oo+++",
"@XXooooooXX..oo++oo++++ooXX@@XXooOOooXXXXoo++++ooXX@@@@@@@@..ooo",
"@XXooooooXX..oo++oo++++ooXX@@XXooOOooXXXXoo++++ooXX@@@@@@@@..ooo",
"Xoooo++++XX..++oooo..oooo..@@@@XXooOOooXX++++oooo..@@XXXXXX@@...",
"Xoooo++++XX..++oooo..oooo..@@@@XXooOOooXX++++oooo..@@XXXXXX@@...",
"o++++XXXX@@@@......@@....@@@@XXoo++OO++++ooooXXXX@@XXooooooXX@@@",
"o++++XXXX@@@@......@@....@@@@XXoo++OO++++ooooXXXX@@XXooooooXX@@@",
"+ooXX@@@@XXXX@@@@@@@@@@@@XXXXoo++++++++++..XX@@@@@@..oo++ooXXXXX",
"+ooXX@@@@XXXX@@@@@@@@@@@@XXXXoo++++++++++..XX@@@@@@..oo++ooXXXXX",
"o..@@@@@@XX++XXXX@@@@@@XXoooo++oooooo++++oo..@@@@@@@@XXoo++OOOOo",
"o..@@@@@@XX++XXXX@@@@@@XXoooo++oooooo++++oo..@@@@@@@@XXoo++OOOOo",
"+oo..@@XXooOOoo..@@@@@@XX++++ooooXX..oo++++oo..@@@@XXXX++OOoo++o",
"+oo..@@XXooOOoo..@@@@@@XX++++ooooXX..oo++++oo..@@@@XXXX++OOoo++o",
"+oo..@@XX..oo..@@@@@@@@XXoooo....@@..oo++++oo..@@XXoo++oo++++oo.",
"+oo..@@XX..oo..@@@@@@@@XXoooo....@@..oo++++oo..@@XXoo++oo++++oo.",
"ooo..@@@@@@....@@@@@@@@@@XX..@@@@@@@@..oo@@..@@@@..oooo..oo++XX@",
"ooo..@@@@@@....@@@@@@@@@@XX..@@@@@@@@..oo@@..@@@@..oooo..oo++XX@",
"...@@@@@@@@XXXXXX@@@@@@XXXXXX@@@@@@@@@@....@@@@@@......@@..oo++X",
"...@@@@@@@@XXXXXX@@@@@@XXXXXX@@@@@@@@@@....@@@@@@......@@..oo++X",
"@@@@@@@@@@@XXoo++OO@@XX++ooXX@@@@@@@@@@@@@@@@@@@@@@@@@@@@..ooooX",
"@@@@@@@@@@@XXoo++OO@@XX++ooXX@@@@@@@@@@@@@@@@@@@@@@@@@@@@..ooooX",
"X@@@@XXXX@@@@XXoo++OO++ooXX@@@@@@XXXX@@@@@@@@XXXX@@@@@@@@@@.....",
"X@@@@XXXX@@@@XXoo++OO++ooXX@@@@@@XXXX@@@@@@@@XXXX@@@@@@@@@@.....",
"XOOXXooooXX@@@@XXooOOooXX@@@@@@XXooOOXXXXOOXXooooXX@@@@@@@@@@@@@",
"XOOXXooooXX@@@@XXooOOooXX@@@@@@XXooOOXXXXOOXXooooXX@@@@@@@@@@@@@",
"oOOoo++oo..@@@@..++++++ooXX@@@@XXoo++OOooOOoo++oo..@@@@@@@@@@OO@",
"oOOoo++oo..@@@@..++++++ooXX@@@@XXoo++OOooOOoo++oo..@@@@@@@@@@OO@",
"Ooo++ooXX@@@@..++....++++oo..@@@@XXoo++OOoo++ooXX@@@@XXXXXXXX@@O",
"Ooo++ooXX@@@@..++....++++oo..@@@@XXoo++OOoo++ooXX@@@@XXXXXXXX@@O",
"O++XXXX@@@@@@....@@@@..oooo..@@@@@@XX++OO++XXXX@@@@XXoo++++ooXXO",
"O++XXXX@@@@@@....@@@@..oooo..@@@@@@XX++OO++XXXX@@@@XXoo++++ooXXO",
"o++ooooXX@@@@@@@@@@@@@@....@@@@XXXX++oooo++ooooXX@@XXoooo++++oo+",
"o++ooooXX@@@@@@@@@@@@@@....@@@@XXXX++oooo++ooooXX@@XXoooo++++oo+",
"X++ooXXXXXX@@@@@@@@@@@@@@@@@@XXoo++oo..XXoo++ooXX@@@@XXXXoo+++++",
"X++ooXXXXXX@@@@@@@@@@@@@@@@@@XXoo++oo..XXoo++ooXX@@@@XXXXoo+++++",
".ooXXooooooXX@@@@OO@@@@@@@@@@..oooo..@@..ooooXX@@@@@@@@@@XXXXoo+",
".ooXXooooooXX@@@@OO@@@@@@@@@@..oooo..@@..ooooXX@@@@@@@@@@XXXXoo+",
"@XXoo++++OOooXXOO@@XXXXXXXX@@@@....@@@@@@XXXX@@@@@@@@@@XXoooo+++",
"@XXoo++++OOooXXOO@@XXXXXXXX@@@@....@@@@@@XXXX@@@@@@@@@@XXoooo+++",
"@XXoo++++ooOOooOOXXoo++++ooXX@@XXXX@@@@@@@@@@@@@@@@@@XXoooo++++o",
"@XXoo++++ooOOooOOXXoo++++ooXX@@XXXX@@@@@@@@@@@@@@@@@@XXoooo++++o",
"@@@XXoo++++OOOO++oo++++ooooXX@@XXooXXXX@@@@@@@@@@@@@@..oo++ooooo",
"@@@XXoo++++OOOO++oo++++ooooXX@@XXooXXXX@@@@@@@@@@@@@@..oo++ooooo",
"@@@XXXXoo++++OO++++++ooXXXX@@XX++OOoo..@@@@XXXX@@@@@@XXoooooo...",
"@@@XXXXoo++++OO++++++ooXXXX@@XX++OOoo..@@@@XXXX@@@@@@XXoooooo...",
"@XXoooo++++++++++ooXXXX@@@@@@XX..oo..@@@@XXooooXX@@@@@@......@@@",
"@XXoooo++++++++++ooXXXX@@@@@@XX..oo..@@@@XXooooXX@@@@@@......@@@",
"Xoooo++++++oooo++++ooooXX@@@@@@@@....@@XXoo++ooXXOOXXXXXX@@@@@@X",
"Xoooo++++++oooo++++ooooXX@@@@@@@@....@@XXoo++ooXXOOXXXXXX@@@@@@X",
".oo++++ooooooXXoo++++ooooXX@@XXXXXX@@@@....oo++OOXXooooXX@@@@@@X",
".oo++++ooooooXXoo++++ooooXX@@XXXXXX@@@@....oo++OOXXooooXX@@@@@@X",
"@..oooooo..XX..oooooo++oo..XXooooOOXX@@@@@@..ooOOoo++oo..@@@@@@@",
"@..oooooo..XX..oooooo++oo..XXooooOOXX@@@@@@..ooOOoo++oo..@@@@@@@",
"@XX......@@@@@@....ooooooXXXXooOOooXXXX@@XX..++++++ooXX@@@@@@@@@",
"@XX......@@@@@@....ooooooXXXXooOOooXXXX@@XX..++++++ooXX@@@@@@@@@",
"XooooOOXX@@XXXX@@@@......oooo++OOXXooooXXoo++oo..oo++ooXX@@@@@@.",
"XooooOOXX@@XXXX@@@@......oooo++OOXXooooXXoo++oo..oo++ooXX@@@@@@.",
"Xoo++OOooXX++ooXX@@@@@@..oo++++oo++++ooXXoooo..@@..oooo..@@@@@@.",
"Xoo++OOooXX++ooXX@@@@@@..oo++++oo++++ooXXoooo..@@..oooo..@@@@@@.",
"@XXoo++OO++ooXX@@@@@@@@@@..oo..oo++ooXX@@....@@@@......@@@@@@@@@",
"@XXoo++OO++ooXX@@@@@@@@@@..oo..oo++ooXX@@....@@@@......@@@@@@@@@",
"@@@XXooOO++XX@@@@@@XXXX@@OOXX..oooooo..@@@@@@@@XXXX@@@@@@@@@@XXX",
"@@@XXooOO++XX@@@@@@XXXX@@OOXX..oooooo..@@@@@@@@XXXX@@@@@@@@@@XXX"
};
