/* XPM */
static char *result[] = {
/* columns rows colors chars-per-pixel */
"64 64 184 2 ",
"   c #000000",
".  c #0C0000",
"X  c #00000D",
"o  c #140000",
"O  c #1D0000",
"+  c #030017",
"@  c #000019",
"#  c #0A0018",
"$  c #170217",
"%  c #250000",
"&  c #2E0000",
"*  c #2C0D00",
"=  c #25000E",
"-  c #320000",
";  c #3B0000",
":  c #34000C",
">  c #291401",
",  c #271500",
"<  c #230016",
"1  c #2B0019",
"2  c #280017",
"3  c #330016",
"4  c #3C0017",
"5  c #330018",
"6  c #3C0018",
"7  c #2D3508",
"8  c #3F0028",
"9  c #3C1B39",
"0  c #3C1C34",
"q  c #430000",
"w  c #440409",
"e  c #450A0C",
"r  c #4A0000",
"t  c #441202",
"y  c #45150C",
"u  c #400315",
"i  c #410C16",
"p  c #420318",
"a  c #440A18",
"s  c #471717",
"d  c #491C17",
"f  c #471618",
"g  c #471818",
"h  c #481919",
"j  c #481817",
"k  c #4C291B",
"l  c #4D2518",
"z  c #542F16",
"x  c #4E3118",
"c  c #513415",
"v  c #523816",
"b  c #5B3C14",
"n  c #583510",
"m  c #451623",
"M  c #4D2C2D",
"N  c #41242E",
"B  c #4D2E34",
"V  c #4F3030",
"C  c #523232",
"Z  c #5D4314",
"A  c #634313",
"S  c #6B4C12",
"D  c #6C5513",
"F  c #755C14",
"G  c #775911",
"H  c #7F6100",
"J  c #7B6413",
"K  c #481F48",
"L  c #473E6B",
"P  c #483F6B",
"I  c #483E67",
"U  c #2A425D",
"Y  c #5B4141",
"T  c #474B5F",
"R  c #645259",
"E  c #47426E",
"W  c #48406C",
"Q  c #4C4C62",
"!  c #53536B",
"~  c #525976",
"^  c #525B7C",
"/  c #53607E",
"(  c #82650F",
")  c #826D0E",
"_  c #836E03",
"`  c #8B7601",
"'  c #8C7902",
"]  c #8C760D",
"[  c #8D790C",
"{  c #927B0B",
"}  c #947904",
"|  c #846E10",
" . c #8C7C19",
".. c #8D741F",
"X. c #837D6D",
"o. c #817A7A",
"O. c #8F8019",
"+. c #9A8512",
"@. c #9F8911",
"#. c #908019",
"$. c #9C860B",
"%. c #BA9E01",
"&. c #BA9B0B",
"*. c #A48C11",
"=. c #B89F14",
"-. c #BAA307",
";. c #BBA413",
":. c #C2AA04",
">. c #CBAC05",
",. c #C2AB0B",
"<. c #C5A806",
"1. c #C6B108",
"2. c #DBBD05",
"3. c #D7BA09",
"4. c #C8B414",
"5. c #E0BE09",
"6. c #DDC103",
"7. c #DDC10F",
"8. c #E5C505",
"9. c #ECCC08",
"0. c #F0CF04",
"q. c #ECD10A",
"w. c #F4D203",
"e. c #FFD503",
"r. c #FFDA02",
"t. c #F3D408",
"y. c #E0C910",
"u. c #FFE302",
"i. c #818072",
"p. c #4B5B83",
"a. c #576A9E",
"s. c #57739B",
"d. c #586BA0",
"f. c #5978AA",
"g. c #6C7EC0",
"h. c #BF12C0",
"j. c #BC3BC1",
"k. c #BB35C0",
"l. c #C218C0",
"z. c #DA11DA",
"x. c #D132D0",
"c. c #DF18E6",
"v. c #EE00ED",
"b. c #E617E9",
"n. c #FA19FF",
"m. c #F917FF",
"M. c #FD23FF",
"N. c #EE38F5",
"B. c #DB47E7",
"V. c #E048EE",
"C. c #EF4AFF",
"Z. c #F446FF",
"A. c #F24BFF",
"S. c #F848FF",
"D. c #5F87BC",
"F. c #6389B8",
"G. c #5F85C0",
"H. c #6587C2",
"J. c #7182C0",
"K. c #6895CC",
"L. c #678DD2",
"P. c #738BD2",
"I. c #6898D8",
"U. c #7994D8",
"Y. c #6CA1DC",
"T. c #7A9DE4",
"R. c #6AA1E3",
"E. c #6FA6EF",
"W. c #6FABED",
"Q. c #73ACED",
"!. c #6BAAF0",
"~. c #75ADFF",
"^. c #78ACFF",
"/. c #75B3FF",
"(. c #7DB1FF",
"). c #8F8585",
"_. c #968C8C",
"`. c #809FE4",
"'. c #87A7FF",
"]. c #8AA7FF",
"[. c #8CAAFF",
"{. c #80AAF8",
"}. c #90ADFF",
"|. c #81B2FF",
/* pixels */
"K K K K K K K K K K K K K K K K K K K K K K K K K K K K K K K K K K K K K K K K K K K K K K K K K K K K K K K K K K K K K K K K ",
"K K K K K K K K K K K K K K K K K K K K K K K K K K K K K K K K K K K K K K K K K K K K K K K K K K K K K K K K K K K K K K K K ",
"K K K K K K K K K K K K K K K K K K K K K K K K K K K K K K K K K K K K K K K K K K K K K K K K K K K K K K K K K K K K K K K K ",
"K K K K K K K K K K K K K K K K K K K K K K K K K K K K K K K K K K K K K K K K K K K K K K K K K K K K K K K K K K K K K K K K ",
"K K K K K K K K K K K K K K K K K K K K K K K K K K K K K K K K K K K K K K K K K K K K K K K K K K K K K K K K K K K K K K K K ",
"K K K K K K K K K K K K K K K K K ; - - - - & - - - - - - - - - - - - - - - & - - - - - O R K K K K K K K K K K K K K K K K K K ",
"K K K K K K K K K K K K K K K K K K g s g g g g g g g g g g g g g g g g g g g g g g g g e Y K K K K K K K K K K K K K K K K K K ",
"K K K K K K K K K K K K K K   - - s s s g g g g g g g g g g g g g g g g g g g g g g g g h e - - - - - o K K K K K K K K K K K K ",
"K K K K K K K K K K K K K K q s s s s s g g g g g g g g g g g g g g g g g g g g g g g g g g g g s s g w K K K K K K K K K K K K ",
"K K K K K K K K K K K . - ; g s g s g s g g g g g g g g g g g g g g g g g g g g g g g g g g g g g g g g ; - o K K K K K K K K K ",
"K K K K K K K K K K K w s s g s s s s s g g g g g g g g g g g g g g g g g g g j g g g g g g j j s s s s s s e K K K K K K K K K ",
"K K K K K K K K % ; q g s s g s s g s g g g g g g g g g g g g g g g g g g g g j g g g g g h j j s s s g s s g q ; % K K K K K K ",
"K K K K K K K K ; g j s g s g s s g s s g g g g g g g g g g g g g g g g g g g f a a j j j j a a i s g s s s s s j - K K K K K K ",
"K K K K K K K K ; s s s s s s s s g s s g g g g g g g g g g g g g g g g g g g l v v k g g h v v c j s s s s s s j ; K K K K K K ",
"K K K K K K K C s s g s s g s g f f g g g g g g g g g g g g g g g g g g a p 3 -.t.w.;.2 6 F q.9.0.J 6 j s s s s q - K K K K K K ",
"K K K K q ; ; e s s s s s s s s j j j g g g g g g g g g g g g g g g g j v Z c 1.r.r.4.$ 6 J r.e.r.( 6 s s s s K Y C K K K K K K ",
"K K K K K s s s s g s g s s s s s g s g g g g g g g g g g g g g g g l 4 6.w.w.w.e.r.4.@ 5 F e.e.r.( 3 4 i j ; K K K K K K K K K ",
"K K K K K s s s s s s s s s g s s s s s g g g g g h g g g g g g g g d f 8.e.e.e.e.r.4.b S  .r.e.w.[ S D z s - K K K K K K K K K ",
"K K K K K s s s f s s f g s g s s s s s j j g 6 6 6 6 5 6 6 h g g g h 6 8.e.e.e.e.e.e.w.w.w.e.e.r.w.w.e. .4 - K K K K K K K K K ",
"K K K K K s s s j s s j s s s s s g s g j j f D J J J J J D j g g g l 6 8.e.e.e.e.e.e.e.e.e.e.e.e.e.e.r.#.3 - K K K K K K K K K ",
"K K K K K s s s f s s j j j j s s s j j j h 6 3.r.r.e.e.r.6.3 6 5 f h i 8.e.e.e.e.e.e.r.e.e.e.r.e.e.e.r.O.3 - K K K K K K K K K ",
"K K K K K s s s j s s s j j j j s s s j j j u 2.r.e.e.e.r.8.J ) J l g i 8.e.e.e.e.e.0.2.6.6.6.6.8.w.e.u.#.3 - K K K K K K K K K ",
"K K K K K s s s s s j j j j s s j s j j h j u 2.r.r.e.e.e.r.r.r.q.x g 4 8.e.e.e.e.r.1.          X 7.r.r. .#   K K K K K K K K K ",
"K K K K K s s s f j j j j j s s s s j j h h a &.7.3.9.e.e.e.e.e.q.x g f 8.e.e.e.e.r.3._ ' ' ' ' ] 9.r.r.=.{ } K K K K K K K K K ",
"K K K K K s s s s s s s s g s g s s s j g g g 6 5 @ -.r.e.e.e.r.q.1 5 < 8.r.e.e.e.e.e.e.r.r.e.e.r.e.e.e.r.r.r.>.  % K K K K K K ",
"K K K K K s s s s s s s s s s s f j s s g g g j j 5 *.2.3.2.e.e.t.*.@.@.9.r.e.e.e.e.e.e.e.e.e.e.e.e.e.e.e.e.r.>.< ; K K K K K K ",
"K K K K - - - ; g s s s g s g g j j j j g g g g g h 6 5 # ] u.e.e.r.r.r.e.e.e.e.e.e.e.e.e.e.e.e.e.e.e.r.r.r.u.>.$ ; K K K K K K ",
"K K K K K K K K q g s s s s s g j j j j g g g g g g h f p F ,.,.1.e.e.e.e.e.e.e.e.e.e.e.e.e.e.e.w.>.:.:.:.:.1.$.4 ; K K K K K K ",
"K K K K K K K K ; h ; & & ; h g j j s s s s g g g g g g h p 1 $ A w.e.e.e.e.e.e.e.e.e.e.e.e.e.e.w.,             - o K K K K K K ",
"K K K K K K K K ; ; ).K K ).; g f j s s j j g g g g g g g g h 6 S w.e.e.e.e.e.e.e.e.e.e.e.e.e.r.r.-.-.-.D = % o.K K K K K K K K ",
"K K K K K K K K o   K K K K   - - s s s - & & q h h h g h u 1 $ A w.e.e.r.e.e.r.r.r.r.r.r.r.r.r.r.r.r.u.'     K K K K K K K K K ",
"K K K K K K K K K K K K K K K K K K s K K K K K ; h h j 6 F ,.,.>.e.e.e.>.&.&.&.&.&.&.&.&.&.&.&.&.&.%.-.K K K K K K K K K K K K ",
"K K K K K K K K K K K K K K K K K ; - ; K K K K . - ; h 5 { u.e.r.e.e.r.| @ 1 o                         K K K K K K K K K K K K ",
"K K K K K K K K K K K K K K K K K K K K K K K K K K _.; 5 { u.e.e.e.e.r.] 3 ; _.K K K K K K K K K K K K K K K K K K K K K K K K ",
"K K K K K K K K K K K K K K K K K K K K K K K K K K K % 5 { u.e.r.r.r.r.[ 6 - K K K K K K K K K K K K K K K K K K K K K K K K K ",
"K K K K K K K K K K K K K K K K K K K K K K K K K K K - a A +.+.+.+.+.+.A a - K K K K K K K K K K K K K K K K K K K K K K K K K ",
"K K K K K K K K K K K K K K K K K K K K K K K K K K K & h w - - - 5 3 3 a j - K K K K K K K K K K K K K K K K K K K K K K K K K ",
"K K K K K K K K K K K K K K K K K K K K K K K K K K K q q ! Y.I.K.M y y s s q K K K K K K K K K K K K K K K K K K K K K K K K K ",
"K K K K K K K K K K K K K K K K K K K K K K K K O - ; h q / /.~.Q.M y y y y y q - . K K K K K K K K K K K K K K K K K K K K K K ",
"K K K K K K K K K K K K K K K K K K K K K K K K E E.f.q q / /.~.~.R.R.R.Y.R.R.R.R.R.K       K K K K K K K K K K K K K K K K K K ",
"K K K K K K K K K K K K K K K K K K K K K - ; W U.(.H.q q / /.~.~././.~.(.(.|.(.(.|.s.; &   K K K K K K K K K K K K K K K K K K ",
"K K K K K K K K K K K K K K K K K K K K K ; s x.S.S.j.> q / /.~.Q.! T T B.S.Z.Z.Z.S.j.* ;   K K K K K K K K K K K K K K K K K K ",
"K K K K K K K K K K K K K K K K K K K K K q y z.M.M.l., r / /.~.Q.k r q b.M.M.M.M.M.x.7 N   K K K K K K K K K K K K K K K K K K ",
"K K K K K K K K K K K K K K K K K K K K K q w U.}.[.J.q q / /./.Q.M s t `.[.[.[.[.}.Q.!.U   $ K K K K K K K K K K K K K K K K K ",
"K K K K K K K K K K K K K K K K K K K K K q e U.[.[.J.; q ~ W.E.Y.B s t T.'.'.'.'.'.'.[.P.K K ; s K K K K K K K K K K K K K K K ",
"K K K K K K K K K K K K K K K K K K K K K q f z.n.n.h., g m 9 0 9 6 4 - c.M.M.n.m.m.m.m.n.b.K s K K K K K K K K K K K K K K K K ",
"K K K K K K K K K K K K K K K K K K K K K q : K Z.A.j.* s n H H ( J J H x.v.v.N.Z.C.C.C.Z.V.K e K K K K K K K K K K K K K K K K ",
"K K K K K K K K K K K K K K K K K K K K K q t K W ^.F.q 3 [ r.e.e.e.e.e...p r H./.^.^.^.P K K s K K K K K K K K K K K K K K K K ",
"K K K K K K K K K K K K K K K K K K K K K q w K P /.H.q 4 { u.e.e.e.r.r.` : q D./.~.~.~.P K K s K K K K K K K K K K K K K K K K ",
"K K K K K K K K K K K K K K K K K K K K K q w K P /.D.q - ' u.e.r.e.r.r.` - q F./.L.L P K K - - ; K K K K K K K K K K K K K K K ",
"K K K K K K K K K K K K K K K K K K K K K q w K L /.L.~ p.i.6.2.2.2.2.6.i.p.^ K.~.L K K K K K K K K K K K K K K K K K K K K K K ",
"K K K K K K K K K K K K K K K K K K K K Y & & K K L L L./.I.- - - - - & R./.L.P P K K & O K K K K K K K K K K K K K K K K K K K ",
"K K K K K K K K K K K K K K K K K K K K K K K K K K K P ~.R.a.d.d.d.d.a.E.~.P K K K K K K K K K K K K K K K K K K K K K K K K K ",
"K K K K K K K K K K K K K K K K K K K K K K K K - ; K K P P W W W W W W P P K K q % K K K K K K K K K K K K K K K K K K K K K K ",
"K K K K K K K K K K K K K K K K K K K K K K K K - q K K K K K K K K K K K K K K q - K K K K K K K K K K K K K K K K K K K K K K ",
"K K K K K K K K K K K K K K K K K K K K K K K K . - ; q q r q q q q q q q q q ; -   K K K K K K K K K K K K K K K K K K K K K K ",
"K K K K K K K K K K K K K K K K K K K K K K K K K K K ; j j j j j j s j j j ; K K K K K K K K K K K K K K K K K K K K K K K K K ",
"K K K K K K K K K K K K K K K K K K K K K K K K K K K & j j j j j j s s j j - K K K K K K K K K K K K K K K K K K K K K K K K K ",
"K K K K K K K K K K K K K K K K K K K K K K K K K K K & j j j j j j j s j s q K K K K K K K K K K K K K K K K K K K K K K K K K ",
"K K K K K K K K K K K K K K K K K K K K K K K K K K K   & & & - - - - - - & - O     K K K K K K K K K K K K K K K K K K K K K K ",
"K K K K K K K K K K K K K K K K K K K K K K K K K K K K K K K K K K K K K K K K K K K K K K K K K K K K K K K K K K K K K K K K ",
"K K K K K K K K K K K K K K K K K K K K K K K K K K K K K K K K K K K K K K K K K K K K K K K K K K K K K K K K K K K K K K K K ",
"K K K K K K K K K K K K K K K K K K K K K K K K K K K K K K K K K K K K K K K K K K K K K K K K K K K K K K K K K K K K K K K K ",
"K K K K K K K K K K K K K K K K K K K K K K K K K K K K K K K K K K K K K K K K K K K K K K K K K K K K K K K K K K K K K K K K "
};
