/* XPM */
static char *result[] = {
/* columns rows colors chars-per-pixel */
"64 64 155 2 ",
"   c #010000",
".  c #0D0000",
"X  c #140000",
"o  c #1B0000",
"O  c #250000",
"+  c #2C0000",
"@  c #290B00",
"#  c #320000",
"$  c #3C0000",
"%  c #3B0E00",
"&  c #341600",
"*  c #260017",
"=  c #2A0018",
"-  c #3C0016",
";  c #3D0018",
":  c #3E0D16",
">  c #430101",
",  c #490300",
"<  c #450B01",
"1  c #450E0D",
"2  c #451101",
"3  c #411800",
"4  c #471109",
"5  c #420412",
"6  c #430C15",
"7  c #471717",
"8  c #471917",
"9  c #481816",
"0  c #471718",
"q  c #471818",
"w  c #481918",
"e  c #4C260D",
"r  c #4D2415",
"t  c #522E13",
"y  c #573711",
"u  c #5B3913",
"i  c #451B26",
"p  c #5C0032",
"a  c #492129",
"s  c #4B333F",
"d  c #472734",
"f  c #604618",
"g  c #675317",
"h  c #705610",
"j  c #7E670C",
"k  c #7F6A18",
"l  c #5C0D45",
"z  c #481F48",
"x  c #472D42",
"c  c #482F45",
"v  c #4E2744",
"b  c #502A46",
"n  c #57204B",
"m  c #463044",
"M  c #4A3345",
"N  c #4D3E4F",
"B  c #3D4544",
"V  c #76605A",
"C  c #4D4462",
"Z  c #514E64",
"A  c #4E4D70",
"S  c #4F5278",
"D  c #4F5F7A",
"F  c #505671",
"G  c #515876",
"H  c #51557D",
"J  c #525C7D",
"K  c #78696F",
"L  c #8C710D",
"P  c #92760C",
"I  c #95780B",
"U  c #887315",
"Y  c #927E17",
"T  c #9D8813",
"R  c #AE9811",
"E  c #B19C11",
"W  c #BDA409",
"Q  c #B6A512",
"!  c #C0A908",
"~  c #CCB40A",
"^  c #D9BE08",
"/  c #D2B705",
"(  c #E3BF05",
")  c #DCC005",
"_  c #D7C213",
"`  c #ECD306",
"'  c #FFDE01",
"]  c #F3D801",
"[  c #FFE400",
"{  c #525F80",
"}  c #526382",
"|  c #576885",
" . c #55678B",
".. c #576B8F",
"X. c #56739B",
"o. c #59749C",
"O. c #63709D",
"+. c #5A79A4",
"@. c #607FB5",
"#. c #D400CA",
"$. c #D700D6",
"%. c #DD00D4",
"&. c #D900D8",
"*. c #CD22CD",
"=. c #F600F0",
"-. c #F900F5",
";. c magenta",
":. c #B55DCC",
">. c #BE52DA",
",. c #D25FF3",
"<. c #DC67F7",
"1. c #DC64FF",
"2. c #DD71FF",
"3. c #E173FF",
"4. c #5F84B3",
"5. c #6088B6",
"6. c #738DB4",
"7. c #5F9CD0",
"8. c #648DC4",
"9. c #638DCA",
"0. c #6491C7",
"q. c #6492CA",
"w. c #6792D3",
"e. c #6995D2",
"r. c #6593DA",
"t. c #6995DB",
"y. c #679FD9",
"u. c #68A1DC",
"i. c #6699E0",
"p. c #6D9FE4",
"a. c #5FABF0",
"s. c #6DA9E7",
"d. c #6FA4EF",
"f. c #65ABEC",
"g. c #6CA7E8",
"h. c #70A5EF",
"j. c #70ACEF",
"k. c #6DAFFF",
"l. c #71AFF3",
"z. c #75ADFF",
"x. c #62B4FF",
"c. c #6CB2FF",
"v. c #6FB9FF",
"b. c #70B0F2",
"n. c #75B1FE",
"m. c #78B3FF",
"M. c #79BAFF",
"N. c #928A8A",
"B. c #9284DA",
"V. c #9F93ED",
"C. c #B08DF1",
"Z. c #A190F0",
"A. c #A896FF",
"S. c #AA99FF",
"D. c #BA93FF",
/* pixels */
"z z z z z z z z z z z z z z z z z z z z z z z z z z z z z z z z z z z z z z z z z z z z z z z z z z z z z z z z z z z z z z z z ",
"z z z z z z z z z z z z z z z z z z z z z z z z z z z z z z z z z z z z z z z z z z z z z z z z z z z z z z z z z z z z z z z z ",
"z z z z z z z z z z z z z z z z z z z z z z z z z z z z z z z z z z z z z z z z z z z z z z z z z z z z z z z z z z z z z z z z ",
"z z z z z z z z z z z z z z z z z z z z z z z z z z z z z z z z z z z z z z z z z z z z z z z z z z z z z z z z z z z z z z z z ",
"z z z z z z z z z z z z z z z z z z z z z z z z z z v z z z z z z v z z z v z z v z z v z z z z z z z z z z z z z z z z z z z z ",
"z z z z z z z z z z z z z z z z z z z + > < > > > 5 5 $ > > > $ - > > > 5 > 5 $ > > - > $ z z z z z z z z z z z z z z z z z z z ",
"z z z z z z z z z z z z z z z z z z z # 0 7 7 7 7 7 4 7 7 7 7 7 7 4 7 7 7 7 7 4 7 1 7 7 > z z z z z z z z z z z z z z z z z z z ",
"z z z z z z z z z z z z z z z z + $ < 0 0 0 q q 0 0 q q q q 7 7 q q 7 7 7 q q q 7 7 7 7 7 7 $ # z z z z z z z z z z z z z z z z ",
"z z z z z z z z z z z z z z z z $ 7 7 7 7 q q q q q q q q q q q q q q q q q q q q q q q q q 7 1 z z z z z z z z z z z z z z z z ",
"z z z z z z z z z z z z z + $ 7 q 0 7 7 7 q q q q q q q q q q q q q q q q q q q q q q q q q 0 q 7 $ # z z z z z z z z z z z z z ",
"z z z z z z z z z z z z z $ 7 7 7 9 7 q 7 q q q q q q q q q q q q q q q q q q q q q q q q q q q 7 7 > z z z z z z z z z z z z z ",
"z z z z z z z z z z + $ 1 7 7 7 q 7 7 7 0 q q q q q q q q q q q q q q q q q q q q q q q q q q q 7 7 7 7 $ $ # z z z z z z z z z ",
"z z z z z z z z z z $ 7 7 7 7 q 7 0 7 7 7 q q q q q q q q q q q q q q q q q q q q q q q q q q q 7 7 7 7 7 1 > z z z z z z z z z ",
"z z z z z z z + # 1 q 7 7 0 7 7 7 0 7 q 7 q q q q q q q q q q q q q q q q q q q q q q q q q q q 7 7 7 7 7 7 4 z z z z z z z z z ",
"z z z z z z z > 7 7 7 q 7 7 7 q 7 9 q 7 7 q q q q q q q q q q q q q q q q q q q q q q q q q q q 7 7 7 q 0 7 1 z z z z z z z z z ",
"z z z z z z z > 7 7 7 7 q q 7 7 q 7 7 7 q q q q q q q q q q q q q q q q q q q q q q q q q q q q q q 7 7 0 q q $ # O z z z z z z ",
"z z z z z z z $ 7 q 7 7 7 7 7 q 7 7 7 7 q q q q q q q q q q q q q q q q q q q q q q q q q q q q 7 q 7 7 q 7 7 7 7 $ z z z z z z ",
"z z z z z z z $ 7 q 7 q 7 q 7 q 7 q 7 q 7 q q q q q q q q q q q q q q q q q q q q q q q q q q q 7 7 7 q 7 7 7 q 7 > z z z z z z ",
"z z z z z z z > 7 7 7 q 7 7 q 7 7 7 7 7 7 q q q q q q q q q q q q q q q q q q q q q q q q q q q 7 q 7 q 7 q 7 7 1 $ z z z z z z ",
"z z z z + # 7 q 7 q 7 7 q 7 7 7 7 q q 7 q q q q q q q q q q q q q q q q q q q q q q q q q q q q 7 7 7 7 7 q 7 q 7 $ z z z z z z ",
"z z z z $ 7 7 7 q 7 7 7 7 q q 7 7 0 7 q q q q q q q q q q q q q q q q q q q q q q q q q q q q q q 7 7 q 7 7 7 7 7 > z z z z z z ",
"z z z z > 7 7 7 7 7 q 7 7 7 7 7 7 9 7 7 7 q q q q q q q q q q q q q q q q q q q q q q q q q q q q 7 7 q q 7 q 7 7 q # # o z z z ",
"z z z z > 7 7 q 7 q 7 7 7 q 7 q q 7 7 7 q q q q q q q q q q q q q q q q q q q q q q q q q q q q q 7 7 7 7 7 7 7 7 7 7 7 $ z z z ",
"z z z z $ q 7 7 7 7 q q 7 7 7 7 7 7 q 7 q q q q q q q q q q q q q q q q q q q q q q q q q q q q q 7 q 7 7 q q 7 7 7 7 7 $ z z z ",
"z z z z > 7 7 7 7 0 0 0 7 7 q q q q 7 7 q q q q q q q q q q q q q q q q q q q q q q q q q q q q q q q 7 7 7 7 q 7 7 7 7 $ z z z ",
"z z z z $ 7 7 7 0 0 0 0 q 7 7 7 7 7 7 0 q q q q q q q q q q q q q q q q q q q q q q q q q q q q q 7 7 7 7 q 7 7 7 7 7 7 $ z z z ",
"z z z z > 7 7 q 9 0 0 9 0 7 7 7 7 q 9 0 q q q q q q q q q q q q q q q q q q q q q q q q q q q q q 7 q 7 q 7 7 7 7 7 q 7 $ z z z ",
"z z z z > 0 7 7 7 0 7 7 7 7 0 7 7 7 7 q q q q q q q q q q q q q q q q q q q q q q q q q q q q q q 7 7 7 q 7 q 7 7 7 7 7 $ z z z ",
"z z z z > 7 q 7 7 7 q 7 7 7 7 0 q 7 7 q q q q q q q q q q q q q q q q q q q q q q q q q q q q q q q q 7 7 q 7 7 7 7 7 7 $ z z z ",
"z z z z > 7 7 0 0 0 7 7 7 q 7 0 7 7 0 q q q q q q q q q q q q q q q q q q q q q q q q q q q q q q q 7 7 0 7 7 q 7 7 7 7 $ z z z ",
"z z z z > 7 7 q 9 0 0 q 7 0 0 7 q q 7 q q q q q q q q q q q q q q q q q q q q q q q q q q q q q q 7 q 7 7 7 7 7 7 7 7 7 $ z z z ",
"z z z z O + 1 q 0 # + + < 0 0 7 7 7 9 q q q q q q q q q q q q q q q q q q q q q q q q q q q q q q 7 7 7 # + # 1 q 0 # + X z z z ",
"z z z z z z v > 1 z z z z > 7 7 7 7 7 q q q q q q q q q q q q q q q q q q q q q q q q q q q q q q q 1 z z z z z > 1 z z z z z z ",
"z z z z z z z O O z z z z $ q # + # # + # + # + $ w 8 ; = = = = = - q q > + + # + # # # # + + # # # O z z z z z o o z z z z z z ",
"z z z z z z z z z z z z z $ $ z v z z z z z z z v $ ; U ! W W W ! T - > z z v z z z z z z z z z z z z z z z z z z z z z z z z z ",
"z z z z z z z z z z z z z X . z z z z z z z z z z O = Q [ ' ' [ [ _ * # z z z z z z z z z z z z z z z z z z z z z z z z z z z z ",
"z z z z z z z z z z z z z z z z z z z z z z z z z $ ; k R R R R E Y ; > z z z z z z z z z z z z z z z z z z z z z z z z z z z z ",
"z z z z z z z z z z z z z z z z z z z   # # + + $ > > $ O + + O + # > > $ + . V z z z z z z z z z z z z z z z z z z z z z z z z ",
"z z z z z z z z z z z z z z z z z z z $ > ..q.8.8.8.8.8.8.8.8.8.8.8.8.8.8.8.9.6.z z z z z z v z z z z z z z z z z z z z z z z z ",
"z z z z z z z z z z z z z X + # # # $ > > 5.m.n.n.n.z.n.n.n.n.z.n.n.z.n.n.n.m.u.+ + + # # + + O , z z z z z z z z z z z z z z z ",
"z z z z z z z z z z z z z 9.0.Z > > X.0.8.g.z.z.z.z.z.z.z.z.z.z.z.z.z.z.z.z.z.d.8.0.4.2 2 s 8.0.z z z z z z z z z z z z z z z z ",
"z z z z z z z z z z X + y.M.M.| > > y.v.c.c.c.c.c.c.c.c.c.k.c.c.c.k.c.c.c.c.c.c.c.v.f.@ + B M.m.b.# O e z z z z z z z z z z z z ",
"z z z z z z z z z z r.q.o.X.o.N < # :.3.2.2.2.2.2.2.2.2.2.2.2.2.2.2.2.2.2.2.2.2.2.2.<.$.&.*.O.X.o.9.w.e.z z z z z z z z z z z z ",
"z z z z z z z O # s.n.v.F > > > , O #.;.;.;.;.;.;.;.;.;.;.;.;.;.;.;.;.;.;.;.;.;.;.;.;.;.;.-.p $ d l.n.n.z + # z z z z z z z z z ",
"z z z z z z z $ 2 g.n.n.G > > @.e.q.V.D.D.D.D.D.D.D.D.D.D.D.D.D.D.D.D.D.D.D.D.D.D.D.D.D.D.C.v > M j.z.b.z > 1 z z z z z z z z z ",
"z z z z z z z $ < s.n.n.G > > y.v.c.c.x.x.x.x.x.x.x.x.x.x.x.x.x.x.x.x.x.x.x.x.x.x.x.x.x.x.a.x > M b.n.n.z > 1 z z z z z z z z z ",
"z z z z z z z $ 7 J  . .M 2 % >.1.1.1.1.1.1.1.1.1.1.1.1.1.1.1.1.1.1.1.1.1.1.1.1.1.1.1.1.1.<.n 3 i |  . .z 1 1 z z z z z z z z z ",
"z z z z z z z > 0 $ # $ 1 0 & %.;.;.;.;.;.;.;.;.;.;.;.;.;.;.;.;.;.;.;.;.;.;.;.;.;.;.;.;.;.=.l % 7 $ # # 1 7 1 z z z z z z z z z ",
"z z z z z z z > 6 ~ ( ^ h ; > B.S.A.A.A.A.A.A.A.A.A.A.A.A.A.A.A.A.A.A.A.A.A.A.A.A.A.A.A.S.Z.v > t / ) ^ f 5 1 z z z z z z z z z ",
"z z z z z z z $ : ` ' [ j - > r.c.z.k.k.k.k.k.k.k.k.k.k.k.k.k.k.k.k.k.k.k.k.k.k.k.k.k.k.c.f.x > y ] ' ' g ; 1 z z z z z z z z z ",
"z z z z z z z $ 7 L I I y 6 > t.z.z.z.z.z.z.z.z.z.z.z.z.z.z.z.z.z.z.z.z.z.z.z.z.z.z.z.z.z.h.x < r P I I t 5 < z z z z z z z z z ",
"z z z z z z z # $ + + O 6 7 > t.z.z.z.z.z.z.z.z.z.z.z.z.n.n.z.n.n.z.n.n.z.z.z.z.z.z.z.z.z.d.x 2 0 + O + $ $ $ z z z z z z z z z ",
"z z z z z z z z z z z z z > > r.z.z.z.z.z.z.z.z.z.z.z.w.F H J J D J J G +.n.z.z.z.z.z.z.z.d.x >   z z z z z z z z z z z z z z z ",
"z z z z z z z z z z z z z $ > t.z.z.z.z.z.z.z.z.z.z.z.9.> , > > $ > > > D m.z.z.z.z.z.z.z.d.x >   z z z z z z z z z z z z z z z ",
"z z z z z z z z z z z z z $ > t.z.z.z.z.z.z.z.z.z.z.z.9.> # z z z z # > D M.z.z.z.z.z.z.z.h.x >   z z z z z z z z z z z z z z z ",
"z z z z z z z z z z z z z $ > t.z.z.z.z.z.z.z.z.z.z.n.8.> # z z z z # > D n.z.z.z.z.z.z.n.d.x >   z z z z z z z z z z z z z z z ",
"z z z z z z z z z z z z z $ < A H H H H H H H H H H H C < # z z z z + 4 M H H H H H H H H S i >   z z z z z z z z z z z z z z z ",
"z z z z z z z z z z z z z $ z > > > > > > , > , , > > < q # z z z z # q 4 > , > > > , > > > 7 1   z z z z z z z z z z z z z z z ",
"z z z z z z z z z z z z z z z z z z N.# 7 7 7 7 7 7 7 7 0 # z z z z # 7 7 0 7 7 0 $ z z z z z z z z z z z z z z z z z z z z z z ",
"z z z z z z z z z z z z z z z z z z z # 7 7 7 0 7 7 q q q + z z z z + 7 7 7 7 7 0 $ z z z z z z z z z z z z z z z z z z z z z z ",
"z z z z z z z z z z z z z z z z z z z > 4 6 4 1 6 1 6 1 6 + z z z z + 6 7 1 1 1 1 < z z z z z z z z z z z z z z z z z z z z z z ",
"z z z z z z z z z z z z z z z K + > z z z z z z v z z z z # z z z v $ z z z z z z z z > $ > $ $ z z z z z z z z z z z z z z z z ",
"z z z z z z z z z z z z z z z z z z z z z z z z z z z z z z z z z z z z z z z z z z z z z z z z z z z z z z z z z z z z z z z z ",
"z z z z z z z z z z z z z z z z z z z z z z z z z z z z z z z z z z z z z z z z z z z z z z z z z z z z z z z z z z z z z z z z "
};
